<svg xmlns="http://www.w3.org/2000/svg" xmlns:xlink="http://www.w3.org/1999/xlink" version="1.0" x="0px" y="0px" width="100px" height="100px" viewBox="0 0 100 100" overflow="" enable-background="new 0 0 100 100" xml:space="preserve">
    <path d="M79.92,10.289h-7.095V5.905c0-2.42-1.964-4.387-4.385-4.387c-2.42,0-4.386,1.967-4.386,4.387v4.384h-8.77 V5.905c0-2.42-1.966-4.387-4.387-4.387c-2.421,0-4.385,1.967-4.385,4.387v4.384h-8.771V5.905c0-2.42-1.962-4.387-4.382-4.387 c-2.424,0-4.385,1.967-4.385,4.387v4.384h-7.094c-5.77,0-10.449,4.68-10.449,10.454v66.801c0,5.773,4.679,10.448,10.449,10.448 H79.92c5.766,0,10.442-4.675,10.442-10.448V20.743C90.362,14.969,85.686,10.289,79.92,10.289z M81.597,85.815 c0,1.882-1.526,3.407-3.405,3.407H23.612c-1.879,0-3.408-1.525-3.408-3.407V22.468c0-1.875,1.529-3.407,3.408-3.407h5.363v4.386 c0,2.421,1.961,4.382,4.385,4.382c2.42,0,4.382-1.961,4.382-4.382v-4.386h8.771v4.386c0,2.421,1.963,4.382,4.385,4.382 c2.421,0,4.387-1.961,4.387-4.382v-4.386h8.77v4.386c0,2.421,1.966,4.382,4.386,4.382c2.421,0,4.385-1.961,4.385-4.382v-4.386 h5.366c1.879,0,3.405,1.532,3.405,3.407V85.815z"/>
    <rect x="28.976" y="36.601" width="43.85" height="8.771"/>
    <rect x="28.976" y="54.142" width="43.85" height="8.771"/>
    <rect x="28.976" y="71.684" width="43.85" height="8.769"/>
</svg>